<svg id="visual" viewBox="0 0 900 600" width="900" height="600" xmlns="http://www.w3.org/2000/svg" xmlns:xlink="http://www.w3.org/1999/xlink" version="1.1"><rect x="0" y="0" width="900" height="600" fill="#001220"></rect><path d="M0 349L21.5 362.5C43 376 86 403 128.8 409.8C171.7 416.7 214.3 403.3 257.2 404C300 404.7 343 419.3 385.8 426C428.7 432.7 471.3 431.3 514.2 420C557 408.7 600 387.3 642.8 375.3C685.7 363.3 728.3 360.7 771.2 366.2C814 371.7 857 385.3 878.5 392.2L900 399L900 601L878.5 601C857 601 814 601 771.2 601C728.3 601 685.7 601 642.8 601C600 601 557 601 514.2 601C471.3 601 428.7 601 385.8 601C343 601 300 601 257.2 601C214.3 601 171.7 601 128.8 601C86 601 43 601 21.5 601L0 601Z" fill="#fa7268"></path><path d="M0 471L21.5 458.3C43 445.7 86 420.3 128.8 422.8C171.7 425.3 214.3 455.7 257.2 463.5C300 471.3 343 456.7 385.8 445.5C428.7 434.3 471.3 426.7 514.2 427.2C557 427.7 600 436.3 642.8 433.8C685.7 431.3 728.3 417.7 771.2 417.7C814 417.7 857 431.3 878.5 438.2L900 445L900 601L878.5 601C857 601 814 601 771.2 601C728.3 601 685.7 601 642.8 601C600 601 557 601 514.2 601C471.3 601 428.7 601 385.8 601C343 601 300 601 257.2 601C214.3 601 171.7 601 128.8 601C86 601 43 601 21.5 601L0 601Z" fill="#ef5f67"></path><path d="M0 436L21.5 446.8C43 457.7 86 479.3 128.8 484.2C171.7 489 214.3 477 257.2 468.5C300 460 343 455 385.8 453.2C428.7 451.3 471.3 452.7 514.2 453.3C557 454 600 454 642.8 455.5C685.7 457 728.3 460 771.2 460.3C814 460.7 857 458.3 878.5 457.2L900 456L900 601L878.5 601C857 601 814 601 771.2 601C728.3 601 685.7 601 642.8 601C600 601 557 601 514.2 601C471.3 601 428.7 601 385.8 601C343 601 300 601 257.2 601C214.3 601 171.7 601 128.8 601C86 601 43 601 21.5 601L0 601Z" fill="#e34c67"></path><path d="M0 545L21.5 540.3C43 535.7 86 526.3 128.8 525.2C171.7 524 214.3 531 257.2 534.8C300 538.7 343 539.3 385.8 530.2C428.7 521 471.3 502 514.2 499.7C557 497.3 600 511.7 642.8 511.7C685.7 511.7 728.3 497.3 771.2 493.2C814 489 857 495 878.5 498L900 501L900 601L878.5 601C857 601 814 601 771.2 601C728.3 601 685.7 601 642.8 601C600 601 557 601 514.2 601C471.3 601 428.7 601 385.8 601C343 601 300 601 257.2 601C214.3 601 171.7 601 128.8 601C86 601 43 601 21.5 601L0 601Z" fill="#d53867"></path><path d="M0 544L21.5 547C43 550 86 556 128.8 557.8C171.7 559.7 214.3 557.3 257.2 558.2C300 559 343 563 385.8 566.5C428.7 570 471.3 573 514.2 573C557 573 600 570 642.8 566C685.7 562 728.3 557 771.2 549.5C814 542 857 532 878.5 527L900 522L900 601L878.5 601C857 601 814 601 771.2 601C728.3 601 685.7 601 642.8 601C600 601 557 601 514.2 601C471.3 601 428.7 601 385.8 601C343 601 300 601 257.2 601C214.3 601 171.7 601 128.8 601C86 601 43 601 21.5 601L0 601Z" fill="#c62368"></path></svg>