<svg id="visual" viewBox="0 0 900 600" width="900" height="600" xmlns="http://www.w3.org/2000/svg" xmlns:xlink="http://www.w3.org/1999/xlink" version="1.1"><rect width="900" height="600" fill="#001829"></rect><g><g transform="translate(441 33)"><path d="M0 -147L127.3 -73.5L127.3 73.5L0 147L-127.3 73.5L-127.3 -73.5Z" fill="none" stroke="#297EA6" stroke-width="2"></path></g><g transform="translate(744 251)"><path d="M0 -138L119.5 -69L119.5 69L0 138L-119.5 69L-119.5 -69Z" fill="none" stroke="#297EA6" stroke-width="2"></path></g><g transform="translate(204 430)"><path d="M0 -115L99.6 -57.5L99.6 57.5L0 115L-99.6 57.5L-99.6 -57.5Z" fill="none" stroke="#297EA6" stroke-width="2"></path></g><g transform="translate(525 482)"><path d="M0 -110L95.3 -55L95.3 55L0 110L-95.3 55L-95.3 -55Z" fill="none" stroke="#297EA6" stroke-width="2"></path></g><g transform="translate(58 95)"><path d="M0 -133L115.2 -66.5L115.2 66.5L0 133L-115.2 66.5L-115.2 -66.5Z" stroke="#297EA6" fill="none" stroke-width="2"></path></g><g transform="translate(825 547)"><path d="M0 -129L111.7 -64.5L111.7 64.5L0 129L-111.7 64.5L-111.7 -64.5Z" stroke="#297EA6" fill="none" stroke-width="2"></path></g></g></svg>