<svg id="visual" viewBox="0 0 900 600" width="900" height="600" xmlns="http://www.w3.org/2000/svg" xmlns:xlink="http://www.w3.org/1999/xlink" version="1.1"><rect x="0" y="0" width="900" height="600" fill="#002233"></rect><path d="M0 380L18.8 402.7C37.7 425.3 75.3 470.7 112.8 478.5C150.3 486.3 187.7 456.7 225.2 455.8C262.7 455 300.3 483 337.8 485.2C375.3 487.3 412.7 463.7 450.2 446.8C487.7 430 525.3 420 562.8 414C600.3 408 637.7 406 675.2 406.3C712.7 406.7 750.3 409.3 787.8 427.2C825.3 445 862.7 478 881.3 494.5L900 511L900 601L881.3 601C862.7 601 825.3 601 787.8 601C750.3 601 712.7 601 675.2 601C637.7 601 600.3 601 562.8 601C525.3 601 487.7 601 450.2 601C412.7 601 375.3 601 337.8 601C300.3 601 262.7 601 225.2 601C187.7 601 150.3 601 112.8 601C75.3 601 37.7 601 18.8 601L0 601Z" fill="#0066FF" stroke-linecap="round" stroke-linejoin="miter"></path></svg>